<svg xmlns="http://www.w3.org/2000/svg" xmlns:xlink="http://www.w3.org/1999/xlink" width="256" zoomAndPan="magnify" viewBox="0 0 192 191.999996" height="256" preserveAspectRatio="xMidYMid meet" version="1.0"><defs><g/></defs><g fill="#000000" fill-opacity="1"><g transform="translate(25.890936, 169.416825)"><g><path d="M 30.84375 -164.296875 L 39.203125 -164.296875 L 45.46875 -160.125 L 60.09375 -162.203125 C 84.257812 -162.203125 106.539062 -148.273438 126.9375 -120.421875 L 137.390625 -99.53125 L 135.296875 -97.453125 L 137.390625 -87 L 137.390625 -76.5625 C 137.390625 -40.757812 108.140625 -13.597656 49.640625 4.921875 L 28.75 7 C 28.75 3.476562 25.96875 1.390625 20.40625 0.734375 L 20.40625 9.09375 L 14.125 9.09375 L 14.125 -3.4375 L 12.046875 -5.53125 L 14.125 -7.625 L 14.125 -9.703125 C 5.769531 -15.441406 1.59375 -20.316406 1.59375 -24.328125 C 5.769531 -87.410156 12.734375 -133.367188 22.484375 -162.203125 L 24.578125 -162.203125 L 26.671875 -160.125 Z M 22.484375 -143.40625 L 12.046875 -82.828125 L 12.046875 -80.734375 L 14.125 -80.734375 L 24.578125 -139.234375 L 24.578125 -143.40625 Z M 55.90625 -128.78125 C 55.90625 -126 53.125 -124.609375 47.5625 -124.609375 C 41.988281 -99.210938 37.804688 -69.960938 35.015625 -36.859375 C 43.128906 -36.859375 64.019531 -43.820312 97.6875 -57.75 L 97.6875 -59.84375 L 93.515625 -59.84375 C 104.660156 -71.226562 110.234375 -83.066406 110.234375 -95.359375 L 110.234375 -101.625 C 110.234375 -116.945312 99.785156 -126 78.890625 -128.78125 Z M 97.6875 -128.78125 L 97.6875 -126.703125 L 106.046875 -122.515625 L 106.046875 -124.609375 L 99.78125 -128.78125 Z M 116.5 -99.53125 L 114.40625 -74.46875 L 118.578125 -74.46875 L 118.578125 -80.734375 L 120.671875 -89.09375 L 118.578125 -99.53125 Z M 131.125 -82.828125 L 120.671875 -49.40625 L 120.671875 -47.3125 L 122.765625 -47.3125 L 133.203125 -78.640625 L 133.203125 -82.828125 Z M 110.234375 -68.203125 L 106.046875 -59.84375 L 108.140625 -59.84375 L 112.3125 -68.203125 Z M 97.6875 -30.59375 C 100.96875 -31.09375 105.84375 -35.273438 112.3125 -43.140625 L 112.3125 -45.21875 Z M 49.640625 -18.0625 L 49.640625 -15.96875 L 58 -15.96875 L 68.453125 -20.15625 L 68.453125 -22.25 L 66.359375 -22.25 Z M 32.9375 -15.96875 L 35.015625 -9.703125 L 39.203125 -9.703125 L 43.375 -13.890625 L 43.375 -15.96875 L 41.296875 -15.96875 L 35.015625 -13.890625 Z M 9.953125 -3.4375 L 12.046875 -3.4375 L 12.046875 -1.359375 L 7.859375 2.828125 L 5.78125 2.828125 L 5.78125 0.734375 Z M 9.953125 -3.4375 "/></g></g></g></svg>